<svg xmlns="http://www.w3.org/2000/svg" viewBox="0 0 16 16"><style type="text/css">.stylebaseStrokeDark{ fill:#36425a; }.stylebaseStrokeLight{ fill:#36425a; opacity:0.5; }.stylebaseFill{ fill:#36425a; opacity:0.12; }.stylethemeStroke{ fill:#417ff9; }.stylethemeFillHalf{ fill:#417ff9; opacity:0.16; }.stylethemeFill{ fill:#417ff9; opacity:0.12; }.styledeleteStroke{ fill:#E84F45; }.styledeleteFill{ fill:#E84F45; opacity:0.08; }</style><title>清除污渍</title><path class="stylebaseStrokeDark" d="M9.934 1.359a.8.8 0 0 1 1.042-.078l.09.078 4.575 4.575a.8.8 0 0 1 .078 1.042l-.078.09-7.7 7.7a.8.8 0 0 1-.44.224l-.125.01H3.624a.8.8 0 0 1-.47-.152l-.095-.082-2.7-2.7a.8.8 0 0 1-.078-1.042l.078-.09L9.934 1.36zM4.5 8.206L1.207 11.5l2.5 2.5h3.585l1.5-1.5L4.5 8.205zm6-5.999L5.207 7.5 9.5 11.793 14.793 6.5 10.5 2.207z"/><path class="stylethemeStroke" d="M11.5 14a.5.5 0 0 1 .09.992L11.5 15h-2a.5.5 0 0 1-.09-.992L9.5 14h2zm4 0a.5.5 0 0 1 .09.992L15.5 15h-2a.5.5 0 0 1-.09-.992L13.5 14h2z"/></svg>