<?xml version="1.0" encoding="UTF-8"?>
<svg width="34px" height="34px" viewBox="0 0 34 34" version="1.1" xmlns="http://www.w3.org/2000/svg" xmlns:xlink="http://www.w3.org/1999/xlink">
    <title>小图标</title>
    <g id="小图标" stroke="none" stroke-width="1" fill="none" fill-rule="evenodd">
        <g id="状态栏/图标hover" fill="#E84026">
            <rect id="status-bar/btn/bg/hover" x="0" y="0" width="34" height="34" rx="17"></rect>
        </g>
        <g id="编组" transform="translate(7.000000, 7.000000)" fill="#FFFFFF" fill-rule="nonzero">
            <g id="编组">
                <rect id="矩形" opacity="0" x="0" y="0" width="20" height="20"></rect>
                <g transform="translate(0.841667, 2.300000)">
                    <path d="M2.7,0 C2.20555556,0 1.75277778,0.119444444 1.34166667,0.358333333 C0.925,0.597222222 0.597222222,0.925 0.358333333,1.34166667 C0.119444444,1.75277778 1.85037171e-16,2.20555556 1.85037171e-16,2.7 L1.85037171e-16,10.6166667 C1.85037171e-16,11.1111111 0.119444444,11.5666667 0.358333333,11.9833333 C0.597222222,12.3944444 0.925,12.7194444 1.34166667,12.9583333 C1.75277778,13.1972222 2.20555556,13.3166667 2.7,13.3166667 L6.65833333,13.3166667 L6.65833333,14.1583333 L6.04166667,14.1583333 C5.86388889,14.1583333 5.71666667,14.2194444 5.6,14.3416667 C5.47777778,14.4583333 5.41666667,14.6055556 5.41666667,14.7833333 C5.41666667,14.9555556 5.47777778,15.1 5.6,15.2166667 C5.71666667,15.3388889 5.86388889,15.4 6.04166667,15.4 L12.275,15.4 C12.4527778,15.4 12.6027778,15.3388889 12.725,15.2166667 C12.8527778,15.1 12.9166667,14.9555556 12.9166667,14.7833333 C12.9166667,14.6055556 12.8527778,14.4583333 12.725,14.3416667 C12.6027778,14.2194444 12.4527778,14.1583333 12.275,14.1583333 L11.6583333,14.1583333 L11.6583333,13.3166667 L15.6166667,13.3166667 C16.1111111,13.3166667 16.5638889,13.1972222 16.975,12.9583333 C17.3916667,12.7194444 17.7194444,12.3944444 17.9583333,11.9833333 C18.1972222,11.5666667 18.3166667,11.1111111 18.3166667,10.6166667 L18.3166667,2.7 C18.3166667,2.20555556 18.1972222,1.75277778 17.9583333,1.34166667 C17.7194444,0.925 17.3916667,0.597222222 16.975,0.358333333 C16.5638889,0.119444444 16.1111111,0 15.6166667,0 L2.7,0 Z M15.6166667,1.24166667 C16.0166667,1.24166667 16.3611111,1.38333333 16.65,1.66666667 C16.9333333,1.95555556 17.075,2.3 17.075,2.7 L17.075,10.6166667 C17.075,11.0166667 16.9333333,11.3611111 16.65,11.65 C16.3611111,11.9388889 16.0166667,12.0833333 15.6166667,12.0833333 L2.7,12.0833333 C2.3,12.0833333 1.95555556,11.9388889 1.66666667,11.65 C1.38333333,11.3611111 1.24166667,11.0166667 1.24166667,10.6166667 L1.24166667,2.7 C1.24166667,2.3 1.38333333,1.95555556 1.66666667,1.66666667 C1.95555556,1.38333333 2.3,1.24166667 2.7,1.24166667 L15.6166667,1.24166667 Z" id="形状"></path>
                    <path d="M2.675,2.08333333 C2.49166667,2.08333333 2.34722222,2.13611111 2.24166667,2.24166667 C2.13055556,2.34722222 2.075,2.49444444 2.075,2.68333333 L2.075,10.6416667 C2.075,10.825 2.13055556,10.9722222 2.24166667,11.0833333 C2.34722222,11.1888889 2.49166667,11.2416667 2.675,11.2416667 L15.6416667,11.2416667 C15.825,11.2416667 15.9694444,11.1888889 16.075,11.0833333 C16.1861111,10.9722222 16.2416667,10.825 16.2416667,10.6416667 L16.2416667,2.68333333 C16.2416667,2.49444444 16.1861111,2.34722222 16.075,2.24166667 C15.9694444,2.13611111 15.825,2.08333333 15.6416667,2.08333333 L2.675,2.08333333 Z" id="路径"></path>
                </g>
            </g>
        </g>
    </g>
</svg>