<?xml version="1.0" encoding="UTF-8"?>
<svg width="40px" height="40px" viewBox="0 0 40 40" version="1.1" xmlns="http://www.w3.org/2000/svg" xmlns:xlink="http://www.w3.org/1999/xlink">
    <title>b69595b9-8629-4d9e-ae1f-c219aa0fe477</title>
    <g id="页面-1" stroke="none" stroke-width="1" fill="none" fill-rule="evenodd">
        <g id="系统确认弹框—PAD" transform="translate(-700.000000, -401.000000)" fill-rule="nonzero">
            <g id="编组" transform="translate(520.000000, 377.000000)">
                <g transform="translate(180.000000, 24.000000)">
                    <circle id="椭圆形" fill="#E84026" cx="20" cy="20" r="20"></circle>
                    <g transform="translate(8.000000, 8.000000)" fill="#FFFFFF">
                        <rect id="矩形" opacity="0" x="0" y="0" width="24" height="24"></rect>
                        <g transform="translate(1.010000, 2.760000)">
                            <path d="M3.24,0 C2.64666667,0 2.10333333,0.143333333 1.61,0.43 C1.11,0.716666667 0.716666667,1.11 0.43,1.61 C0.143333333,2.10333333 2.22044605e-16,2.64666667 2.22044605e-16,3.24 L2.22044605e-16,12.74 C2.22044605e-16,13.3333333 0.143333333,13.88 0.43,14.38 C0.716666667,14.8733333 1.11,15.2633333 1.61,15.55 C2.10333333,15.8366667 2.64666667,15.98 3.24,15.98 L7.99,15.98 L7.99,16.99 L7.25,16.99 C7.03666667,16.99 6.86,17.0633333 6.72,17.21 C6.57333333,17.35 6.5,17.5266667 6.5,17.74 C6.5,17.9466667 6.57333333,18.12 6.72,18.26 C6.86,18.4066667 7.03666667,18.48 7.25,18.48 L14.73,18.48 C14.9433333,18.48 15.1233333,18.4066667 15.27,18.26 C15.4233333,18.12 15.5,17.9466667 15.5,17.74 C15.5,17.5266667 15.4233333,17.35 15.27,17.21 C15.1233333,17.0633333 14.9433333,16.99 14.73,16.99 L13.99,16.99 L13.99,15.98 L18.74,15.98 C19.3333333,15.98 19.8766667,15.8366667 20.37,15.55 C20.87,15.2633333 21.2633333,14.8733333 21.55,14.38 C21.8366667,13.88 21.98,13.3333333 21.98,12.74 L21.98,3.24 C21.98,2.64666667 21.8366667,2.10333333 21.55,1.61 C21.2633333,1.11 20.87,0.716666667 20.37,0.43 C19.8766667,0.143333333 19.3333333,0 18.74,0 L3.24,0 Z M18.74,1.49 C19.22,1.49 19.6333333,1.66 19.98,2 C20.32,2.34666667 20.49,2.76 20.49,3.24 L20.49,12.74 C20.49,13.22 20.32,13.6333333 19.98,13.98 C19.6333333,14.3266667 19.22,14.5 18.74,14.5 L3.24,14.5 C2.76,14.5 2.34666667,14.3266667 2,13.98 C1.66,13.6333333 1.49,13.22 1.49,12.74 L1.49,3.24 C1.49,2.76 1.66,2.34666667 2,2 C2.34666667,1.66 2.76,1.49 3.24,1.49 L18.74,1.49 Z" id="形状"></path>
                            <path d="M3.21,2.5 C2.99,2.5 2.81666667,2.56333333 2.69,2.69 C2.55666667,2.81666667 2.49,2.99333333 2.49,3.22 L2.49,12.77 C2.49,12.99 2.55666667,13.1666667 2.69,13.3 C2.81666667,13.4266667 2.99,13.49 3.21,13.49 L18.77,13.49 C18.99,13.49 19.1633333,13.4266667 19.29,13.3 C19.4233333,13.1666667 19.49,12.99 19.49,12.77 L19.49,3.22 C19.49,2.99333333 19.4233333,2.81666667 19.29,2.69 C19.1633333,2.56333333 18.99,2.5 18.77,2.5 L3.21,2.5 Z" id="路径"></path>
                        </g>
                    </g>
                </g>
            </g>
        </g>
    </g>
</svg>